<?xml version="1.0" standalone="no"?>
<!DOCTYPE svg PUBLIC "-//W3C//DTD SVG 20010904//EN"
 "http://www.w3.org/TR/2001/REC-SVG-20010904/DTD/svg10.dtd">
<svg version="1.0" xmlns="http://www.w3.org/2000/svg"
 width="16.000000pt" height="16.000000pt" viewBox="0 0 16.000000 16.000000"
 preserveAspectRatio="xMidYMid meet">
<metadata>
Created by potrace 1.11, written by Peter Selinger 2001-2013
</metadata>
<g transform="translate(0.000000,16.000000) scale(0.010390,-0.010390)"
fill="#000000" stroke="none">
<path d="M577 1300 l2 -190 -42 22 c-23 11 -108 58 -188 104 -80 46 -150 84
-155 84 -5 0 -18 -17 -30 -38 -11 -20 -36 -64 -54 -97 -19 -33 -51 -89 -71
-125 -21 -36 -35 -68 -31 -71 4 -4 81 -48 172 -99 91 -51 173 -98 183 -105 17
-12 3 -22 -125 -98 -78 -46 -162 -95 -185 -108 -46 -26 -50 -34 -29 -64 7 -11
24 -40 38 -65 28 -49 129 -223 134 -229 2 -2 84 44 184 103 99 58 185 106 189
106 5 0 9 -84 8 -187 l-1 -188 192 -3 c150 -2 192 0 193 10 0 7 1 95 1 196 0
141 3 182 13 178 7 -2 92 -50 190 -105 176 -100 195 -109 195 -93 0 5 40 78
89 163 51 88 86 158 81 163 -5 5 -91 55 -190 111 l-182 102 29 20 c15 11 33
22 39 24 6 2 78 44 161 93 l150 88 -96 164 c-53 90 -99 164 -103 164 -3 0 -62
-33 -130 -73 -67 -41 -143 -84 -168 -97 -25 -14 -52 -30 -61 -38 -15 -12 -17
2 -17 165 0 98 0 184 -1 191 -1 9 -47 12 -193 12 l-193 0 2 -190z"/>
</g>
</svg>
